<svg id="Capa_1" data-name="Capa 1" xmlns="http://www.w3.org/2000/svg" viewBox="0 0 60.04 42.34"><defs><style>.cls-1{fill:#fff;}</style></defs><path class="cls-1" d="M58.56,32a90.53,90.53,0,0,0-6.62-16.57c0-.11-.15-.52-.23-.83-.4-1.58-.67-2.49-1.44-2.77L42.62,9a3.27,3.27,0,0,0-2.89.34,15.49,15.49,0,0,1-2.19,1.22H33.63c0,.71,0,1.2,0,1.36a4,4,0,0,1-3.93,4.67,3.28,3.28,0,0,1-.69-.06,4,4,0,0,1-3.21-3.09,3.92,3.92,0,0,1,0-1.6c0-.17,0-.62,0-1.28h-3a18.22,18.22,0,0,1-2.44-1.21A3.24,3.24,0,0,0,17.43,9L9.77,11.83c-.77.28-1,1.19-1.44,2.77-.08.31-.18.72-.22.81A90.61,90.61,0,0,0,1.48,32C-1.16,41.64-.26,48,4.16,50.76a2.88,2.88,0,0,0,3.36-.27l9.1-7.83a6.12,6.12,0,0,1,4-1.47H39.44a6.12,6.12,0,0,1,4,1.47l9.1,7.83a2.88,2.88,0,0,0,1.88.7,2.77,2.77,0,0,0,1.48-.43C60.3,48,61.2,41.65,58.56,32ZM9.77,21.19a5,5,0,1,1,5,5A5,5,0,0,1,9.77,21.19ZM29.92,32.13a1.71,1.71,0,0,1-1.7,1.71H25.94v2.29a1.72,1.72,0,0,1-1.71,1.71H21.66A1.72,1.72,0,0,1,20,36.13V33.84H17.67A1.72,1.72,0,0,1,16,32.13V29.56a1.72,1.72,0,0,1,1.71-1.72H20V25.56a1.72,1.72,0,0,1,1.71-1.72h2.57a1.72,1.72,0,0,1,1.71,1.72v2.28h2.28a1.71,1.71,0,0,1,1.7,1.72ZM44.67,15.19a2,2,0,1,1-2,2A2,2,0,0,1,44.67,15.19Zm-4,4a2,2,0,1,1-2,2A2,2,0,0,1,40.68,19.19Zm-3,17a5,5,0,1,1,5-5A5,5,0,0,1,37.69,36.19Zm7-9a2,2,0,1,1,2-2A2,2,0,0,1,44.67,27.19Zm4-4a2,2,0,1,1,2-2A2,2,0,0,1,48.66,23.19Z" transform="translate(0 -8.85)"/><ellipse class="cls-1" cx="14.75" cy="12.34" rx="2.99" ry="3"/><polygon class="cls-1" points="23.94 17 21.95 17 21.95 21 17.96 21 17.96 23 21.95 23 21.95 27 23.94 27 23.94 23 27.93 23 27.93 21 23.94 21 23.94 17"/><path class="cls-1" d="M29.35,14.6a2,2,0,0,0,2.36-2,2.33,2.33,0,0,0,0-.38,14.29,14.29,0,0,1,0-1.66H27.8a11.25,11.25,0,0,1,0,1.62,2,2,0,0,0,1.59,2.38Z" transform="translate(0 -8.85)"/><ellipse class="cls-1" cx="37.69" cy="22.34" rx="2.99" ry="3"/></svg>